<svg width="250" height="240" viewBox="0 0 250 240" fill="none" xmlns="http://www.w3.org/2000/svg">
<path d="M131.656 186.121V207.965C131.656 212.015 128.373 215.294 124.327 215.294C120.282 215.294 116.999 212.015 116.999 207.965V186.121C116.999 182.071 120.282 178.793 124.327 178.793C128.373 178.793 131.656 182.071 131.656 186.121Z" fill="#4E6582"/>
<path d="M131.656 186.121V207.965C131.656 212.016 128.373 215.294 124.327 215.294V178.793C128.373 178.793 131.656 182.071 131.656 186.121Z" fill="#2D4968"/>
<path d="M198.452 74.8564C198.452 87.9545 194.983 100.833 188.422 112.09C182.706 121.895 174.771 130.288 165.333 136.557V171.684C165.333 183.684 155.571 193.45 143.572 193.45H105.083C93.084 193.45 83.3223 183.684 83.3223 171.684V136.444C73.9565 130.186 66.0811 121.836 60.4038 112.089C53.8374 100.828 50.3687 87.9545 50.3687 74.8559C50.3687 34.0561 83.542 0.858307 124.327 0.814362H124.41C165.239 0.814362 198.452 34.0273 198.452 74.8564Z" fill="#30E3CA"/>
<path d="M198.452 74.8564C198.452 87.9545 194.984 100.833 188.422 112.09C182.706 121.895 174.772 130.288 165.333 136.557V171.684C165.333 183.684 155.571 193.45 143.572 193.45H124.327V0.814362H124.41C165.24 0.814362 198.452 34.0273 198.452 74.8564Z" fill="#219988"/>
<path d="M165.333 148.853V171.684C165.333 183.683 155.571 193.45 143.572 193.45H105.083C93.084 193.45 83.3223 183.683 83.3223 171.684V148.853H165.333Z" fill="#EBC97A"/>
<path d="M7.32053 148.127C3.59641 148.127 0.408913 145.3 0.0358658 141.517C-0.361107 137.489 2.58274 133.902 6.61057 133.505L39.2532 130.289C43.2878 129.892 46.8679 132.836 47.2644 136.864C47.6609 140.892 44.7175 144.479 40.6897 144.875L8.0471 148.091C7.80344 148.115 7.56028 148.127 7.32053 148.127Z" fill="#64DBCA"/>
<path d="M18.1311 200.274C15.3318 200.274 12.6594 198.661 11.4397 195.942C9.78396 192.248 11.4358 187.912 15.1287 186.257L47.3684 171.803C51.0633 170.147 55.3977 171.799 57.0535 175.492C58.7093 179.185 57.0574 183.522 53.3645 185.177L21.1248 199.631C20.1507 200.067 19.1326 200.274 18.1311 200.274Z" fill="#64DBCA"/>
<path d="M54.736 238.743C52.7184 238.743 50.7091 237.915 49.2614 236.289C46.5695 233.266 46.8371 228.634 49.8595 225.942L65.2912 212.196C68.3136 209.504 72.9455 209.77 75.6383 212.794C78.3302 215.817 78.0626 220.449 75.0402 223.141L59.6085 236.887C58.2116 238.13 56.4704 238.743 54.736 238.743Z" fill="#64DBCA"/>
<path d="M242.68 148.435C242.44 148.435 242.197 148.424 241.953 148.4L209.31 145.184C205.282 144.787 202.339 141.2 202.736 137.173C203.133 133.145 206.722 130.207 210.747 130.598L243.389 133.814C247.417 134.211 250.361 137.798 249.964 141.825C249.592 145.608 246.404 148.435 242.68 148.435Z" fill="#64DBCA"/>
<path d="M231.869 200.582C230.867 200.582 229.849 200.375 228.875 199.939L196.636 185.485C192.943 183.829 191.292 179.493 192.947 175.8C194.603 172.107 198.938 170.455 202.632 172.111L234.872 186.565C238.565 188.221 240.216 192.557 238.561 196.25C237.342 198.97 234.668 200.582 231.869 200.582Z" fill="#64DBCA"/>
<path d="M195.264 239.052C193.529 239.052 191.789 238.439 190.391 237.195L174.96 223.449C171.937 220.757 171.67 216.124 174.362 213.102C177.054 210.08 181.687 209.814 184.709 212.504L200.14 226.251C203.163 228.943 203.43 233.576 200.738 236.598C199.291 238.223 197.281 239.052 195.264 239.052Z" fill="#64DBCA"/>
<path d="M124.327 148.853H165.332V171.684C165.332 183.683 155.57 193.45 143.571 193.45H124.327V148.853H124.327Z" fill="#FE7E8A"/>
</svg>
