<svg width="21" height="20" viewBox="0 0 21 20" fill="none" xmlns="http://www.w3.org/2000/svg">
<path d="M20.7273 12.2482V19.6272H16.4493V12.7422C16.4493 11.0122 15.8303 9.83218 14.2823 9.83218C13.1003 9.83218 12.3963 10.6282 12.0873 11.3972C11.9743 11.6722 11.9453 12.0552 11.9453 12.4402V19.6272H7.66531C7.66531 19.6272 7.72331 7.96718 7.66531 6.75818H11.9453V8.58218L11.9173 8.62418H11.9453V8.58218C12.5133 7.70718 13.5283 6.45618 15.8013 6.45618C18.6163 6.45618 20.7273 8.29618 20.7273 12.2482ZM3.18931 0.555176C1.72631 0.555176 0.768311 1.51518 0.768311 2.77818C0.768311 4.01318 1.69831 5.00218 3.13331 5.00218H3.16131C4.65431 5.00218 5.58131 4.01318 5.58131 2.77818C5.55531 1.51518 4.65531 0.555176 3.19031 0.555176H3.18931ZM1.02231 19.6272H5.30031V6.75818H1.02231V19.6272Z" fill="#B3CCC8" fill-opacity="0.51"/>
</svg>
